HIERARCHY
ROOT Hips
{
  OFFSET 4.54204 104.534 -153.366
  CHANNELS 6 Xposition Yposition Zposition Zrotation Xrotation Yrotation
  JOINT RightUpLeg
  {
    OFFSET -8.9458 -8.66707 0.101652
    CHANNELS 3 Zrotation Xrotation Yrotation
    JOINT RightLeg
    {
      OFFSET 0 -44.4227 1.3727
      CHANNELS 3 Zrotation Xrotation Yrotation
      JOINT RightFoot
      {
        OFFSET 0.253549 -42.0924 -1.46059
        CHANNELS 3 Zrotation Xrotation Yrotation
        JOINT RightToes
        {
          OFFSET 0.04 -4.41509 8.4991
          CHANNELS 3 Zrotation Xrotation Yrotation
          End Site
          {
            OFFSET -0.08 -0.137448 9.77979
          }
        }
      }
    }
  }
  JOINT Spine
  {
    OFFSET 0 11.8905 0
    CHANNELS 3 Zrotation Xrotation Yrotation
    JOINT Spine1
    {
      OFFSET 0 25.6574 0.127663
      CHANNELS 3 Zrotation Xrotation Yrotation
      JOINT HEad
      {
        OFFSET 0 8.73416 0.011341
        CHANNELS 3 Zrotation Xrotation Yrotation
        End Site
        {
          OFFSET -0.29 12.7742 2.51395
        }
      }
      JOINT LeftShoulder1
      {
        OFFSET 8.99 -0.362252 -0.22
        CHANNELS 3 Zrotation Xrotation Yrotation
        JOINT LeftArm
        {
          OFFSET 10.2827 -0.00338 0.322123
          CHANNELS 3 Zrotation Xrotation Yrotation
          JOINT LeftForeArm
          {
            OFFSET 32.7669 0.099144 -1.42434
            CHANNELS 3 Zrotation Xrotation Yrotation
            JOINT LeftHand
            {
              OFFSET 27.5643 0.085362 1.02216
              CHANNELS 3 Zrotation Xrotation Yrotation
              End Site
              {
                OFFSET 16.7443 -0.6 1.50291
              }
            }
          }
        }
      }
      JOINT RightShoulder
      {
        OFFSET -8.99 -0.362252 -0.22
        CHANNELS 3 Zrotation Xrotation Yrotation
        JOINT RightArm
        {
          OFFSET -10.2827 -0.00338 0.322123
          CHANNELS 3 Zrotation Xrotation Yrotation
          JOINT RightForeArm
          {
            OFFSET -32.8971 0.099144 -1.42434
            CHANNELS 3 Zrotation Xrotation Yrotation
            JOINT RightHand
            {
              OFFSET -27.4921 0.085362 1.02216
              CHANNELS 3 Zrotation Xrotation Yrotation
              End Site
              {
                OFFSET -16.6312 -0.6 1.50291
              }
            }
          }
        }
      }
    }
  }
  JOINT LeftUpLeg
  {
    OFFSET 8.9458 -8.66707 0.101652
    CHANNELS 3 Zrotation Xrotation Yrotation
    JOINT LeftLeg
    {
      OFFSET 0 -44.4227 1.3727
      CHANNELS 3 Zrotation Xrotation Yrotation
      JOINT LeftFoot
      {
        OFFSET -0.253549 -42.0924 -1.46059
        CHANNELS 3 Zrotation Xrotation Yrotation
        JOINT LeftToes
        {
          OFFSET -0.04 -4.41509 8.4991
          CHANNELS 3 Zrotation Xrotation Yrotation
          End Site
          {
            OFFSET 0.08 -0.047448 9.77979
          }
        }
      }
    }
  }
}
MOTION
Frames:	16
Frame Time:	0.0166667
-3.19981 102.269 11.3294 -0.626698 -8.6143 -7.05234 1.19143 11.0111 3.63506 5.49406 43.1031 -8.12996 3.39896 -22.2607 0.35094 6.6548 6.6232 6.76773 5.59133 1.17965 -2.50717 -5.37968 6.25193 -0.00830171 3.7019 0.156387 8.45657 2.73329e-016 -1.98785e-016 -0 -66.8557 -62.131 0.586816 -18.5794 17.7525 -32.5295 0.368473 9.90896 -0.00117927 -17.138 -1.28428 15.955 107.75 -18.5587 24.5599 16.6979 17.8215 34.2112 -0.369625 9.91382 0.00119886 -2.68734 -7.86734 6.17397 -0.512328 9.78771 2.72473 3.21341 2.11595 -0.140607 -4.75638 -10.9027 33.8902 
-3.18528 102.437 13.1704 -0.608286 -8.6347 -6.11768 1.13757 9.97785 2.01719 5.42486 45.7171 -9.7818 3.678 -19.3742 0.310751 9.37179 11.0605 8.93635 5.53302 0.990975 -2.68862 -5.71937 6.41727 0.00487732 3.84422 0.393974 7.79266 -1.73937e-016 -1.98785e-016 -0 -67.1923 -61.9819 -0.014945 -18.4613 17.6908 -32.4439 0.368473 9.90896 -0.00117927 -16.682 -1.18621 15.6442 107.503 -19.3768 23.1898 16.8307 17.6779 33.2248 -0.369625 9.91382 0.00119886 -2.79497 -7.36543 4.73837 -0.85616 10.9555 2.77875 3.18238 1.55515 -0.123424 -4.67207 -11.4641 34.4897 
-3.14703 102.594 14.9031 -0.659892 -8.54666 -5.08841 1.0327 8.17017 -0.00774376 5.28319 48.7884 -11.5491 4.06471 -15.162 0.205719 11.794 15.5923 11.0063 5.491 0.847429 -2.82455 -5.98467 6.56667 0.0196278 3.9333 0.469893 7.04406 -2.75869e-033 9.93923e-017 1.59028e-015 -68.2496 -61.6301 -1.42607 -18.2977 17.5926 -32.2756 0.368473 9.90896 -0.00117927 -16.115 -1.04924 14.9374 107.132 -20.151 21.879 16.9709 17.4622 31.8137 -0.369625 9.91382 0.00119886 -2.86709 -6.88479 3.87255 -1.04272 11.8379 2.26188 3.17826 1.00029 -0.105297 -4.51924 -12.241 35.2425 
-3.05337 102.725 16.3772 -0.785322 -8.25924 -4.32806 0.717492 5.22615 -1.87611 4.83125 52.3024 -13.1141 4.83485 -8.42789 -0.0256895 13.4056 19.5844 12.1296 5.50913 0.97043 -2.88437 -6.21642 6.60412 0.0327018 4.08679 0.205525 6.52706 -3.72721e-017 -4.96962e-017 -1.59028e-015 -70.8713 -61.0171 -4.48676 -18.1165 17.4648 -32.0432 0.368473 9.90896 -0.00117927 -15.8149 -0.924627 13.5969 107.05 -20.3981 20.9559 17.1113 17.1707 29.9393 -0.369625 9.91382 0.00119886 -2.80088 -6.58916 3.68567 -1.21 12.449 1.53756 3.43473 0.409532 -0.0957807 -4.37651 -12.7343 35.4252 
-2.95304 102.812 17.7218 -0.811812 -7.87433 -3.69822 0.226976 1.67552 -3.81399 3.75149 56.0287 -13.7996 5.55365 -0.92472 -0.307144 14.1658 22.3762 12.4781 5.42271 1.17468 -2.91149 -6.5438 6.6327 0.0507256 4.29693 -0.315534 6.15569 1.67725e-016 4.96962e-017 -0 -73.6746 -60.191 -7.8314 -17.9401 17.3288 -31.7624 0.368473 9.90896 -0.00117927 -15.4088 -0.784359 12.0175 106.964 -20.5143 20.2843 17.2099 16.8134 27.74 -0.369625 9.91382 0.00119886 -2.81716 -6.40711 3.72393 -1.36691 12.9403 0.828723 3.764 -0.214094 -0.0858756 -4.21182 -13.2565 35.4971 
-2.89217 102.797 19.0114 -0.458463 -7.4804 -3.14276 -0.398617 -2.08088 -6.23166 0.322548 59.7844 -11.3204 5.70683 6.28304 -0.629823 13.5761 22.754 11.8267 4.96501 1.35005 -2.93685 -7.20168 6.74577 0.0834826 4.65714 -1.12339 5.94044 2.11209e-016 3.97569e-016 -0 -75.7117 -59.2336 -10.554 -17.796 17.2046 -31.4324 0.368473 9.90896 -0.00117927 -14.5488 -0.604392 10.4421 106.625 -20.7113 19.8435 17.2693 16.4097 25.2697 -0.369625 9.91382 0.00119886 -3.18315 -6.36085 3.52903 -1.59469 13.5681 0.514672 4.07658 -0.908867 -0.06814 -3.98128 -14.014 35.7128 
-2.84698 102.774 20.2596 -0.0314751 -7.0271 -2.77464 -1.16032 -5.99122 -8.09993 -3.80765 63.392 -8.11343 5.63728 12.3244 -0.916224 12.1705 21.6481 10.4242 4.48335 1.49257 -2.96712 -7.91428 6.87652 0.118313 5.01065 -2.05209 5.90978 -8.44835e-016 -1.19271e-015 1.59028e-015 -77.0413 -58.3196 -12.5835 -17.6991 17.1047 -31.1199 0.368473 9.90896 -0.00117927 -13.5456 -0.429052 9.08771 106.23 -21.0799 19.5953 17.1764 15.9694 22.7377 -0.369625 9.91382 0.00119886 -3.60567 -6.32273 3.23043 -1.85538 14.0431 0.500364 4.31242 -1.59269 -0.0474561 -3.74696 -14.7893 35.9918 
-2.81508 102.827 21.4978 0.272093 -6.47051 -2.76182 -1.64452 -9.98353 -8.1864 -5.57748 66.7269 -7.54052 5.58698 16.1705 -1.06802 9.87896 19.1688 8.2524 4.29196 1.54242 -3.04814 -8.53828 6.98806 0.146006 5.24904 -2.94946 6.1768 -9.93923e-017 0 7.95139e-016 -77.3655 -57.7105 -13.5118 -17.7094 17.065 -30.9096 0.368473 9.90896 -0.00117927 -12.6294 -0.306819 8.34232 105.983 -21.7646 19.577 16.8046 15.5328 20.3534 -0.369625 9.91382 0.00119886 -3.8826 -6.1516 2.73342 -2.15513 14.0606 0.937086 4.33692 -2.14626 -0.027197 -3.55926 -15.4519 36.3695 
-2.77853 102.917 22.747 0.422818 -5.88037 -2.88135 -1.81798 -13.914 -7.37929 -5.23332 69.8481 -9.51006 5.09632 17.2358 -1.04893 7.45535 16.4616 6.20652 4.22358 1.55704 -3.09326 -8.91052 7.08406 0.165925 5.34773 -3.80136 6.49607 1.14301e-015 -3.97569e-016 7.95139e-016 -77.1753 -57.2708 -13.7602 -17.7229 17.04 -30.7451 0.368473 9.90896 -0.00117927 -11.7236 -0.206887 7.93483 105.611 -22.8118 19.5491 16.2699 15.1154 18.155 -0.369625 9.91382 0.00119886 -3.99793 -5.90909 2.25347 -2.42759 13.9168 1.46201 4.28341 -2.7195 -0.00443603 -3.42002 -15.9498 36.7274 
-2.71065 103.045 24.0404 0.28339 -5.32274 -2.98159 -1.77751 -17.5792 -6.00515 -0.869603 72.8057 -16.7517 3.54429 13.5473 -0.713951 6.41877 15.2192 5.34769 4.2538 1.54711 -3.02816 -8.761 7.16385 0.17306 5.18397 -4.54151 6.67942 -1.04362e-015 1.59028e-015 -7.95139e-016 -76.6264 -56.9831 -13.336 -17.6381 16.9936 -30.613 0.368473 9.90896 -0.00117927 -10.8145 -0.111317 7.87739 104.864 -24.4454 19.3001 15.5878 14.7453 16.2123 -0.369625 9.91382 0.00119886 -3.84364 -5.56467 1.99119 -2.61273 13.7519 1.74447 4.25344 -3.42787 0.0227819 -3.38339 -16.128 36.9929 
-2.63532 103.175 25.3724 -0.0450376 -4.76261 -3.01936 -1.34828 -20.9648 -4.4501 6.41839 74.6693 -26.4869 1.90497 8.23377 -0.356783 5.65276 14.195 4.64088 4.26825 1.59309 -2.86175 -8.26684 7.20362 0.171304 4.88341 -5.18123 6.66358 -1.39149e-015 -7.95139e-016 -0 -76.1911 -56.6698 -12.8642 -17.5043 16.9311 -30.4693 0.368473 9.90896 -0.00117927 -9.9306 -0.0267512 7.70853 103.802 -26.2968 18.7752 14.9657 14.4446 14.6309 -0.369625 9.91382 0.00119886 -3.50792 -5.25675 1.89477 -2.70546 13.7352 1.84137 4.20893 -4.25546 0.054051 -3.36954 -16.1853 37.052 
-2.57234 103.266 26.753 -0.547822 -4.16225 -2.89124 -0.530669 -23.999 -3.34961 11.5194 75.1763 -32.0749 0.855054 4.00024 -0.234513 4.14184 12.4524 3.28078 4.13181 1.81576 -2.54827 -7.45883 7.16526 0.161792 4.49613 -5.73117 6.27662 -2.98177e-016 -7.95139e-016 1.59028e-015 -76.437 -56.1458 -13.0087 -17.3367 16.8437 -30.2594 0.368473 9.90896 -0.00117927 -9.13337 0.0472684 6.85089 102.362 -28.0513 17.7468 14.6647 14.2595 13.6084 -0.369625 9.91382 0.00119886 -3.00082 -5.18482 2.14794 -2.6336 14.1941 1.56673 4.11849 -5.2601 0.0900034 -3.27699 -16.313 36.6005 
-2.50738 103.33 28.1677 -1.11942 -3.59497 -2.62776 0.435025 -26.6394 -2.47688 14.1297 74.774 -34.1897 0.280426 0.152677 -0.193891 2.50585 10.6331 1.84671 3.87526 2.10501 -2.17726 -6.50622 7.09093 0.147812 4.11168 -6.12769 5.65427 -0 0 7.95139e-016 -77.1132 -55.4329 -13.563 -17.1341 16.7362 -30.0021 0.368473 9.90896 -0.00117927 -8.29774 0.109069 5.6642 100.593 -29.7556 16.4331 14.5478 14.1474 12.9374 -0.369625 9.91382 0.00119886 -2.45311 -5.13424 2.24393 -2.53171 14.7918 1.31726 4.06411 -6.33607 0.12961 -3.21117 -16.3674 36.15 
-2.41729 103.374 29.6092 -1.66516 -3.13477 -2.21922 1.35178 -28.7994 -1.83209 14.1615 73.5215 -33.0693 0.453791 -3.00109 -0.183157 1.10619 9.15436 0.588346 3.46826 2.38873 -1.80851 -5.52922 7.01289 0.131834 3.77867 -6.26809 4.8553 -7.45443e-016 1.59028e-015 -7.95139e-016 -78.1624 -54.5096 -14.5185 -16.8794 16.6047 -29.7069 0.368473 9.90896 -0.00117927 -7.29852 0.161581 4.3342 98.4955 -31.4003 14.9596 14.5461 14.0718 12.5051 -0.369625 9.91382 0.00119886 -1.99279 -4.91301 1.52336 -2.57053 15.2351 1.60937 4.14567 -7.423 0.173516 -3.29781 -16.1637 36.2944 
-2.34839 103.376 31.0649 -2.13192 -2.74202 -1.68158 2.13327 -30.5529 -1.39503 12.6662 71.5209 -30.0351 0.981516 -5.76349 -0.178974 -0.00934573 7.79544 -0.386176 2.96847 2.6734 -1.48561 -4.70577 6.92273 0.117448 3.71295 -6.27469 3.94276 9.93923e-017 0 -0 -79.482 -53.2997 -15.8741 -16.6351 16.4666 -29.3476 0.368473 9.90896 -0.00117927 -6.20423 0.190405 2.80544 96.2607 -32.8177 13.4191 14.6762 14.0294 12.2348 -0.369625 9.91382 0.00119886 -1.61901 -4.65085 0.629754 -2.6239 15.7207 1.91099 4.27698 -8.44262 0.217274 -3.36737 -16.0256 36.4869 
-2.34367 103.304 32.5162 -2.41587 -2.40272 -1.01312 2.63953 -31.9381 -1.20088 10.4446 68.8677 -26.0926 1.56517 -8.4434 -0.133263 -0.527612 6.31133 -0.71857 2.4028 2.95899 -1.27777 -4.27646 6.81253 0.109272 4.22302 -6.25032 2.9807 -1.2921e-015 1.59028e-015 3.97569e-016 -81.0765 -51.6276 -17.7901 -16.4644 16.3364 -28.8806 0.368473 9.90896 -0.00117927 -5.08016 0.178718 0.997336 94.1933 -33.7755 12.0093 14.9344 13.9998 11.9897 -0.369625 9.91382 0.00119886 -1.40803 -4.43438 0.0181612 -2.58491 16.3839 1.81753 4.43051 -9.25386 0.257207 -3.22633 -16.3463 36.2355 
